<svg xmlns="http://www.w3.org/2000/svg" xmlns:xlink="http://www.w3.org/1999/xlink" width="700" zoomAndPan="magnify" viewBox="0 0 525 187.499995" height="250" preserveAspectRatio="xMidYMid meet" version="1.0"><g mask="url(#933f0ac80c)"><g transform="matrix(0.422948, 0, 0, 0.422602, 50.987763, 18.700132)"></g></g><g transform="matrix(1, 0, 0, 1, 248, 142)"><g clip-path="url(#033d11e536)"><g clip-path="url(#56c98c9de1)"><g fill="#3A2F2B" fill-opacity="1"><g transform="translate(0.863425, 14.408982)"><g><path d="M 6.578125 -2.328125 L 2.609375 -13.90625 L 0.890625 -13.90625 L 5.859375 0.09375 L 7.171875 0.09375 L 11.015625 -11.1875 L 14.828125 0.09375 L 16.15625 0.09375 L 21.125 -13.90625 L 19.484375 -13.90625 L 15.5 -2.328125 L 11.6875 -13.953125 L 10.390625 -13.953125 Z M 6.578125 -2.328125 "/></g></g></g></g><g clip-path="url(#0ffcb44798)"><g fill="#3A2F2B" fill-opacity="1"><g transform="translate(25.189579, 14.408982)"><g><path d="M 12.03125 -13.90625 L 1.96875 -13.90625 L 1.96875 0 L 12.125 0 L 12.125 -1.4375 L 3.53125 -1.4375 L 3.53125 -6.296875 L 11.125 -6.296875 L 11.125 -7.734375 L 3.53125 -7.734375 L 3.53125 -12.484375 L 12.03125 -12.484375 Z M 12.03125 -13.90625 "/></g></g></g></g><g clip-path="url(#28ee7c7f63)"><g fill="#3A2F2B" fill-opacity="1"><g transform="translate(40.831104, 14.408982)"><g><path d="M 1.96875 0 L 11.375 0 L 11.375 -1.453125 L 3.53125 -1.453125 L 3.53125 -13.90625 L 1.96875 -13.90625 Z M 1.96875 0 "/></g></g></g></g><g clip-path="url(#4a7848677e)"><g fill="#3A2F2B" fill-opacity="1"><g transform="translate(55.459093, 14.408982)"><g><path d="M 1.96875 0 L 11.375 0 L 11.375 -1.453125 L 3.53125 -1.453125 L 3.53125 -13.90625 L 1.96875 -13.90625 Z M 1.96875 0 "/></g></g></g></g><g clip-path="url(#dc57088a4b)"><g fill="#3A2F2B" fill-opacity="1"><g transform="translate(70.087083, 14.408982)"><g><path d="M 12.203125 -2.765625 L 3.4375 -13.90625 L 1.96875 -13.90625 L 1.96875 0 L 3.5 0 L 3.5 -11.40625 L 12.484375 0 L 13.734375 0 L 13.734375 -13.90625 L 12.203125 -13.90625 Z M 12.203125 -2.765625 "/></g></g></g></g><g clip-path="url(#d5d0a96189)"><g fill="#3A2F2B" fill-opacity="1"><g transform="translate(88.113408, 14.408982)"><g><path d="M 12.03125 -13.90625 L 1.96875 -13.90625 L 1.96875 0 L 12.125 0 L 12.125 -1.4375 L 3.53125 -1.4375 L 3.53125 -6.296875 L 11.125 -6.296875 L 11.125 -7.734375 L 3.53125 -7.734375 L 3.53125 -12.484375 L 12.03125 -12.484375 Z M 12.03125 -13.90625 "/></g></g></g></g><g clip-path="url(#f2b0bad3e6)"><g fill="#3A2F2B" fill-opacity="1"><g transform="translate(103.754933, 14.408982)"><g><path d="M 3.1875 -10.4375 C 3.1875 -10.75 3.253906 -11.046875 3.390625 -11.328125 C 3.523438 -11.609375 3.722656 -11.847656 3.984375 -12.046875 C 4.242188 -12.242188 4.554688 -12.398438 4.921875 -12.515625 C 5.285156 -12.640625 5.691406 -12.703125 6.140625 -12.703125 C 6.859375 -12.703125 7.546875 -12.582031 8.203125 -12.34375 C 8.859375 -12.101562 9.507812 -11.71875 10.15625 -11.1875 L 11.078125 -12.40625 C 10.359375 -12.96875 9.617188 -13.390625 8.859375 -13.671875 C 8.097656 -13.960938 7.207031 -14.109375 6.1875 -14.109375 C 5.519531 -14.109375 4.90625 -14.007812 4.34375 -13.8125 C 3.789062 -13.625 3.304688 -13.359375 2.890625 -13.015625 C 2.484375 -12.679688 2.164062 -12.28125 1.9375 -11.8125 C 1.71875 -11.351562 1.609375 -10.847656 1.609375 -10.296875 C 1.609375 -9.710938 1.703125 -9.207031 1.890625 -8.78125 C 2.078125 -8.363281 2.359375 -7.992188 2.734375 -7.671875 C 3.117188 -7.347656 3.609375 -7.070312 4.203125 -6.84375 C 4.796875 -6.625 5.488281 -6.429688 6.28125 -6.265625 C 7.007812 -6.097656 7.609375 -5.925781 8.078125 -5.75 C 8.546875 -5.582031 8.910156 -5.394531 9.171875 -5.1875 C 9.441406 -4.976562 9.628906 -4.742188 9.734375 -4.484375 C 9.835938 -4.222656 9.890625 -3.925781 9.890625 -3.59375 C 9.890625 -2.882812 9.609375 -2.3125 9.046875 -1.875 C 8.484375 -1.4375 7.734375 -1.21875 6.796875 -1.21875 C 5.828125 -1.21875 4.972656 -1.378906 4.234375 -1.703125 C 3.492188 -2.023438 2.757812 -2.519531 2.03125 -3.1875 L 1.046875 -2.03125 C 1.890625 -1.269531 2.769531 -0.707031 3.6875 -0.34375 C 4.601562 0.0195312 5.617188 0.203125 6.734375 0.203125 C 7.421875 0.203125 8.054688 0.109375 8.640625 -0.078125 C 9.222656 -0.265625 9.722656 -0.53125 10.140625 -0.875 C 10.554688 -1.21875 10.882812 -1.632812 11.125 -2.125 C 11.363281 -2.613281 11.484375 -3.15625 11.484375 -3.75 C 11.484375 -4.820312 11.113281 -5.660156 10.375 -6.265625 C 9.644531 -6.878906 8.503906 -7.363281 6.953125 -7.71875 C 6.179688 -7.875 5.550781 -8.039062 5.0625 -8.21875 C 4.570312 -8.394531 4.1875 -8.59375 3.90625 -8.8125 C 3.632812 -9.03125 3.445312 -9.269531 3.34375 -9.53125 C 3.238281 -9.800781 3.1875 -10.101562 3.1875 -10.4375 Z M 3.1875 -10.4375 "/></g></g></g></g><g clip-path="url(#a4395db3e2)"><g fill="#3A2F2B" fill-opacity="1"><g transform="translate(118.601447, 14.408982)"><g><path d="M 3.1875 -10.4375 C 3.1875 -10.75 3.253906 -11.046875 3.390625 -11.328125 C 3.523438 -11.609375 3.722656 -11.847656 3.984375 -12.046875 C 4.242188 -12.242188 4.554688 -12.398438 4.921875 -12.515625 C 5.285156 -12.640625 5.691406 -12.703125 6.140625 -12.703125 C 6.859375 -12.703125 7.546875 -12.582031 8.203125 -12.34375 C 8.859375 -12.101562 9.507812 -11.71875 10.15625 -11.1875 L 11.078125 -12.40625 C 10.359375 -12.96875 9.617188 -13.390625 8.859375 -13.671875 C 8.097656 -13.960938 7.207031 -14.109375 6.1875 -14.109375 C 5.519531 -14.109375 4.90625 -14.007812 4.34375 -13.8125 C 3.789062 -13.625 3.304688 -13.359375 2.890625 -13.015625 C 2.484375 -12.679688 2.164062 -12.28125 1.9375 -11.8125 C 1.71875 -11.351562 1.609375 -10.847656 1.609375 -10.296875 C 1.609375 -9.710938 1.703125 -9.207031 1.890625 -8.78125 C 2.078125 -8.363281 2.359375 -7.992188 2.734375 -7.671875 C 3.117188 -7.347656 3.609375 -7.070312 4.203125 -6.84375 C 4.796875 -6.625 5.488281 -6.429688 6.28125 -6.265625 C 7.007812 -6.097656 7.609375 -5.925781 8.078125 -5.75 C 8.546875 -5.582031 8.910156 -5.394531 9.171875 -5.1875 C 9.441406 -4.976562 9.628906 -4.742188 9.734375 -4.484375 C 9.835938 -4.222656 9.890625 -3.925781 9.890625 -3.59375 C 9.890625 -2.882812 9.609375 -2.3125 9.046875 -1.875 C 8.484375 -1.4375 7.734375 -1.21875 6.796875 -1.21875 C 5.828125 -1.21875 4.972656 -1.378906 4.234375 -1.703125 C 3.492188 -2.023438 2.757812 -2.519531 2.03125 -3.1875 L 1.046875 -2.03125 C 1.890625 -1.269531 2.769531 -0.707031 3.6875 -0.34375 C 4.601562 0.0195312 5.617188 0.203125 6.734375 0.203125 C 7.421875 0.203125 8.054688 0.109375 8.640625 -0.078125 C 9.222656 -0.265625 9.722656 -0.53125 10.140625 -0.875 C 10.554688 -1.21875 10.882812 -1.632812 11.125 -2.125 C 11.363281 -2.613281 11.484375 -3.15625 11.484375 -3.75 C 11.484375 -4.820312 11.113281 -5.660156 10.375 -6.265625 C 9.644531 -6.878906 8.503906 -7.363281 6.953125 -7.71875 C 6.179688 -7.875 5.550781 -8.039062 5.0625 -8.21875 C 4.570312 -8.394531 4.1875 -8.59375 3.90625 -8.8125 C 3.632812 -9.03125 3.445312 -9.269531 3.34375 -9.53125 C 3.238281 -9.800781 3.1875 -10.101562 3.1875 -10.4375 Z M 3.1875 -10.4375 "/></g></g></g></g><g fill="#3A2F2B" fill-opacity="1"><g transform="translate(133.646774, 14.408982)"><g/></g></g><g clip-path="url(#8264783d20)"><g fill="#3A2F2B" fill-opacity="1"><g transform="translate(141.935178, 14.408982)"><g><path d="M 13.890625 -2.203125 L 12.859375 -3.21875 C 12.191406 -2.582031 11.515625 -2.085938 10.828125 -1.734375 C 10.140625 -1.390625 9.320312 -1.21875 8.375 -1.21875 C 7.601562 -1.21875 6.890625 -1.363281 6.234375 -1.65625 C 5.578125 -1.957031 5.003906 -2.363281 4.515625 -2.875 C 4.035156 -3.394531 3.660156 -4.003906 3.390625 -4.703125 C 3.117188 -5.410156 2.984375 -6.164062 2.984375 -6.96875 C 2.984375 -7.78125 3.117188 -8.535156 3.390625 -9.234375 C 3.660156 -9.929688 4.035156 -10.535156 4.515625 -11.046875 C 5.003906 -11.566406 5.578125 -11.972656 6.234375 -12.265625 C 6.890625 -12.554688 7.601562 -12.703125 8.375 -12.703125 C 9.320312 -12.703125 10.132812 -12.519531 10.8125 -12.15625 C 11.5 -11.800781 12.140625 -11.347656 12.734375 -10.796875 L 13.8125 -11.9375 C 13.46875 -12.269531 13.109375 -12.570312 12.734375 -12.84375 C 12.367188 -13.113281 11.96875 -13.34375 11.53125 -13.53125 C 11.09375 -13.726562 10.617188 -13.878906 10.109375 -13.984375 C 9.597656 -14.097656 9.023438 -14.15625 8.390625 -14.15625 C 7.367188 -14.15625 6.425781 -13.960938 5.5625 -13.578125 C 4.695312 -13.203125 3.953125 -12.6875 3.328125 -12.03125 C 2.710938 -11.375 2.226562 -10.609375 1.875 -9.734375 C 1.519531 -8.859375 1.34375 -7.925781 1.34375 -6.9375 C 1.34375 -5.925781 1.519531 -4.984375 1.875 -4.109375 C 2.226562 -3.234375 2.710938 -2.472656 3.328125 -1.828125 C 3.953125 -1.191406 4.6875 -0.6875 5.53125 -0.3125 C 6.382812 0.0507812 7.316406 0.234375 8.328125 0.234375 C 8.960938 0.234375 9.535156 0.171875 10.046875 0.046875 C 10.566406 -0.0664062 11.050781 -0.226562 11.5 -0.4375 C 11.957031 -0.644531 12.378906 -0.898438 12.765625 -1.203125 C 13.160156 -1.503906 13.535156 -1.835938 13.890625 -2.203125 Z M 13.890625 -2.203125 "/></g></g></g></g><g clip-path="url(#ce1028421e)"><g fill="#3A2F2B" fill-opacity="1"><g transform="translate(158.928089, 14.408982)"><g><path d="M 1.96875 0 L 11.375 0 L 11.375 -1.453125 L 3.53125 -1.453125 L 3.53125 -13.90625 L 1.96875 -13.90625 Z M 1.96875 0 "/></g></g></g></g><g clip-path="url(#2c12fe3a25)"><g fill="#3A2F2B" fill-opacity="1"><g transform="translate(173.158451, 14.408982)"><g><path d="M 13.34375 -13.90625 L 11.765625 -13.90625 L 11.765625 -5.828125 C 11.765625 -4.296875 11.382812 -3.144531 10.625 -2.375 C 9.875 -1.613281 8.859375 -1.234375 7.578125 -1.234375 C 6.234375 -1.234375 5.1875 -1.632812 4.4375 -2.4375 C 3.6875 -3.25 3.3125 -4.410156 3.3125 -5.921875 L 3.3125 -13.90625 L 1.75 -13.90625 L 1.75 -5.828125 C 1.75 -4.847656 1.882812 -3.976562 2.15625 -3.21875 C 2.4375 -2.46875 2.832031 -1.835938 3.34375 -1.328125 C 3.851562 -0.816406 4.460938 -0.429688 5.171875 -0.171875 C 5.878906 0.0859375 6.664062 0.21875 7.53125 0.21875 C 8.40625 0.21875 9.195312 0.0859375 9.90625 -0.171875 C 10.613281 -0.429688 11.222656 -0.816406 11.734375 -1.328125 C 12.242188 -1.847656 12.640625 -2.488281 12.921875 -3.25 C 13.203125 -4.019531 13.34375 -4.914062 13.34375 -5.9375 Z M 13.34375 -13.90625 "/></g></g></g></g><g clip-path="url(#aa4666e358)"><g fill="#3A2F2B" fill-opacity="1"><g transform="translate(190.568709, 14.408982)"><g><path d="M 7.890625 -13.90625 L 1.96875 -13.90625 L 1.96875 0 L 8.15625 0 C 8.90625 0 9.59375 -0.0820312 10.21875 -0.25 C 10.84375 -0.425781 11.375 -0.675781 11.8125 -1 C 12.257812 -1.320312 12.601562 -1.722656 12.84375 -2.203125 C 13.082031 -2.679688 13.203125 -3.21875 13.203125 -3.8125 C 13.203125 -4.289062 13.117188 -4.710938 12.953125 -5.078125 C 12.796875 -5.453125 12.582031 -5.769531 12.3125 -6.03125 C 12.050781 -6.300781 11.738281 -6.53125 11.375 -6.71875 C 11.007812 -6.914062 10.625 -7.070312 10.21875 -7.1875 C 10.5 -7.3125 10.765625 -7.460938 11.015625 -7.640625 C 11.273438 -7.816406 11.507812 -8.035156 11.71875 -8.296875 C 11.9375 -8.566406 12.109375 -8.875 12.234375 -9.21875 C 12.359375 -9.5625 12.421875 -9.96875 12.421875 -10.4375 C 12.421875 -10.96875 12.3125 -11.445312 12.09375 -11.875 C 11.882812 -12.300781 11.582031 -12.664062 11.1875 -12.96875 C 10.789062 -13.269531 10.3125 -13.5 9.75 -13.65625 C 9.195312 -13.820312 8.578125 -13.90625 7.890625 -13.90625 Z M 7.625 -7.71875 L 3.515625 -7.71875 L 3.515625 -12.5 L 7.75 -12.5 C 8.738281 -12.5 9.5 -12.289062 10.03125 -11.875 C 10.5625 -11.46875 10.828125 -10.914062 10.828125 -10.21875 C 10.828125 -9.394531 10.53125 -8.769531 9.9375 -8.34375 C 9.34375 -7.925781 8.570312 -7.71875 7.625 -7.71875 Z M 8.1875 -1.40625 L 3.515625 -1.40625 L 3.515625 -6.3125 L 7.90625 -6.3125 C 9.125 -6.3125 10.046875 -6.101562 10.671875 -5.6875 C 11.296875 -5.269531 11.609375 -4.679688 11.609375 -3.921875 C 11.609375 -3.117188 11.300781 -2.5 10.6875 -2.0625 C 10.082031 -1.625 9.25 -1.40625 8.1875 -1.40625 Z M 8.1875 -1.40625 "/></g></g></g></g></g></g></svg>